<?xml version="1.0" standalone="no"?>
        <!DOCTYPE svg PUBLIC "-//W3C//DTD SVG 1.1//EN" 
        "http://www.w3.org/Graphics/SVG/1.1/DTD/svg11.dtd"> <svg xmlns="http://www.w3.org/2000/svg" class="icon icon-tabler icon-tabler-heart-handshake" width="200" height="200" viewBox="0 0 24 24" stroke-width="2" stroke="currentColor" fill="none" stroke-linecap="round" stroke-linejoin="round" id="IconChangeColor"> <path stroke="#654bfb" d="M0 0h24v24H0z" fill="#ffffff" id="mainIconPathAttribute" stroke-width="0"></path> <path d="M19.5 13.572l-7.5 7.428l-7.5 -7.428a5 5 0 1 1 7.5 -6.566a5 5 0 1 1 7.5 6.572" id="mainIconPathAttribute" fill="#ffffff" stroke="#654bfb"></path> <path d="M12 7l-3.293 3.293a1 1 0 0 0 0 1.414l.543 .543c.69 .69 1.81 .69 2.5 0l1 -1a3.182 3.182 0 0 1 4.5 0l2.25 2.25" id="mainIconPathAttribute" fill="#ffffff" stroke="#654bfb"></path> <path d="M12.5 16.5l2 2" id="mainIconPathAttribute" fill="#ffffff" stroke="#654bfb"></path> <path d="M15 14l2 2" id="mainIconPathAttribute" fill="#ffffff" stroke="#654bfb"></path> </svg> 